<svg width="96" height="96" viewBox="0 0 96 96" fill="none" xmlns="http://www.w3.org/2000/svg">
<path d="M85.7872 5.9978H34.2125C33.6594 5.9978 33.1116 6.10676 32.6006 6.31845C32.0895 6.53013 31.6252 6.84041 31.2341 7.23156C30.843 7.6227 30.5327 8.08706 30.321 8.59811C30.1094 9.10916 30.0005 9.6569 30.0005 10.2101V14.9979L59.0706 23.998L89.9995 14.9979V10.21C89.9995 9.09287 89.5557 8.02147 88.7657 7.23153C87.9758 6.44158 86.9044 5.9978 85.7872 5.9978Z" fill="#0364B8"/>
<path d="M94.9499 52.2135C95.3894 50.8322 95.7403 49.4243 96.0002 47.9983C96.0002 47.6475 95.9078 47.3029 95.7322 46.9991C95.5567 46.6954 95.3043 46.4432 95.0003 46.268V46.2665L94.9619 46.2447L94.9499 46.238L62.4365 27.7155C62.2959 27.6247 62.1504 27.5418 62.0005 27.4672V27.467C61.3789 27.1587 60.6944 26.9983 60.0005 26.9983C59.3067 26.9983 58.6222 27.1587 58.0006 27.467L58.0004 27.4672C57.8506 27.5418 57.7051 27.6247 57.5646 27.7155L25.0512 46.238L25.0392 46.2447L25.0009 46.2665V46.268C24.697 46.4432 24.4446 46.6954 24.2691 46.9992C24.0935 47.3029 24.0011 47.6475 24.001 47.9983C24.2609 49.4243 24.6118 50.8321 25.0513 52.2133L59.5265 77.4285L94.9499 52.2135Z" fill="#0A2767"/>
<path d="M71.9996 14.9985H50.9995L44.9365 23.9986L50.9995 32.9986L71.9996 50.9987H89.9997V32.9986L71.9996 14.9985Z" fill="#28A8EA"/>
<path d="M51.0001 14.9985H30.0005V32.9983H51.0001V14.9985Z" fill="#0078D4"/>
<path d="M90.0003 14.9985H72.0005V32.9983H90.0003V14.9985Z" fill="#50D9FF"/>
<path d="M72.0006 51.0001L51.0006 33H30.0005V51.0001L51.0006 69.0001L83.4967 74.3042L72.0006 51.0001Z" fill="#0364B8"/>
<path d="M71.9996 33H50.9995V51.0002H71.9996V33Z" fill="#0078D4"/>
<path d="M50.9999 50.9983H30.0005V68.9985H50.9999V50.9983Z" fill="#064A8C"/>
<path d="M89.9993 50.9983H71.9995V68.9985H89.9993V50.9983Z" fill="#0078D4"/>
<path opacity="0.5" d="M60.5737 75.6514L25.1929 49.8502L26.6753 47.2428C26.6753 47.2428 58.9104 65.603 59.4026 65.8784C59.6043 65.9591 59.8205 65.9976 60.0377 65.9913C60.2549 65.985 60.4685 65.9341 60.6652 65.8418C61.1252 65.5825 93.4628 47.1519 93.4628 47.1519L94.9511 49.7593L60.5737 75.6514Z" fill="#0A2767"/>
<path d="M94.9998 49.7292V49.7307L94.9601 49.7534L94.95 49.759L62.436 68.2818C61.7902 68.6986 61.0482 68.9426 60.2811 68.9905C59.5139 69.0384 58.7473 68.8886 58.0547 68.5554L69.3786 83.7383L94.1409 89.1292L94.1399 89.1426C94.7162 88.7258 95.1852 88.1782 95.5086 87.5448C95.8319 86.9114 96.0003 86.2103 95.9998 85.4991V47.999C95.9997 48.3498 95.9072 48.6944 95.7316 48.9981C95.5561 49.3018 95.3037 49.554 94.9998 49.7292V49.7292Z" fill="#1490DF"/>
<path opacity="0.05" d="M95.9997 85.5006V83.2866L66.0509 66.2239L62.4361 68.2833C61.7902 68.7 61.0482 68.944 60.2811 68.9919C59.514 69.0398 58.7474 68.89 58.0547 68.5568L69.3787 83.7396L94.1407 89.1304L94.1398 89.1438C94.716 88.727 95.1851 88.1795 95.5085 87.5461C95.8318 86.9128 96.0002 86.2117 95.9997 85.5006V85.5006Z" fill="black"/>
<path opacity="0.1" d="M95.8498 86.6511L63.0209 67.9502L62.436 68.2835C61.7902 68.7002 61.0482 68.9442 60.2811 68.9921C59.5139 69.04 58.7474 68.8902 58.0547 68.557L69.3787 83.7398L94.1408 89.1306L94.1398 89.144C94.98 88.5349 95.584 87.6543 95.8498 86.6511V86.6511Z" fill="black"/>
<path d="M25.0501 49.769V49.739H25.0201L24.9301 49.679C24.6434 49.5029 24.4072 49.2556 24.2442 48.9613C24.0813 48.6669 23.9972 48.3355 24.0001 47.999V85.4991C23.9993 86.0903 24.1151 86.6758 24.341 87.2221C24.5669 87.7685 24.8983 88.2649 25.3163 88.6829C25.7344 89.1009 26.2307 89.4323 26.7771 89.6582C27.3234 89.8841 27.9089 89.9999 28.5001 89.9991H91.5003C91.8751 89.9955 92.2479 89.9451 92.6103 89.8491C92.7983 89.8164 92.9803 89.7558 93.1503 89.6691C93.214 89.6629 93.2756 89.6424 93.3303 89.6091C93.5758 89.5088 93.8077 89.3777 94.0203 89.2191C94.0803 89.1891 94.1103 89.1891 94.1403 89.1291L25.0501 49.769Z" fill="#28A8EA"/>
<path opacity="0.1" d="M54.0001 74.0002V25.0002C53.997 23.9403 53.5745 22.9246 52.825 22.1752C52.0755 21.4257 51.0598 21.0033 49.9999 21.0002H30.0933V33.0003H30.0935V43.3685L25.051 46.2412L25.039 46.248L25.0005 46.2698V46.2712C24.6966 46.4465 24.4442 46.6986 24.2686 47.0024C24.0931 47.3061 24.0007 47.6508 24.0006 48.0016L24.0011 48.0142L24 48.0033V78.0003H50C51.0599 77.9972 52.0755 77.5748 52.825 76.8253C53.5745 76.0758 53.997 75.0602 54.0001 74.0002V74.0002Z" fill="black"/>
<path opacity="0.2" d="M51.0001 76.9994V27.9993C50.997 26.9393 50.5745 25.9237 49.825 25.1742C49.0755 24.4247 48.0598 24.0023 46.9999 23.9993H30.0933V32.9993H30.0935V43.3676L25.051 46.2403L25.039 46.2471L25.0005 46.2689V46.2703C24.6966 46.4456 24.4442 46.6977 24.2686 47.0015C24.0931 47.3052 24.0007 47.6499 24.0006 48.0007L24.0011 48.0133L24 48.0024V80.9996H46.9999C48.0599 80.9964 49.0755 80.574 49.825 79.8245C50.5745 79.075 50.997 78.0594 51.0001 76.9994V76.9994Z" fill="black"/>
<path opacity="0.2" d="M51.0001 70.9992V27.9992C50.997 26.9393 50.5745 25.9237 49.825 25.1742C49.0755 24.4247 48.0598 24.0023 46.9999 23.9993H30.0933V32.9993H30.0935V43.3675L25.051 46.2402L25.039 46.247L25.0005 46.2688V46.2703C24.6966 46.4455 24.4442 46.6977 24.2686 47.0014C24.0931 47.3052 24.0007 47.6498 24.0006 48.0006L24.0011 48.0132L24 48.0023V74.9994H46.9999C48.0599 74.9962 49.0755 74.5738 49.825 73.8243C50.5745 73.0748 50.997 72.0592 51.0001 70.9992V70.9992Z" fill="black"/>
<path opacity="0.2" d="M48.0001 70.9992V27.9992C47.9969 26.9393 47.5745 25.9237 46.825 25.1742C46.0755 24.4247 45.0598 24.0023 43.9999 23.9993H30.0933V32.9993H30.0935V43.3675L25.051 46.2402L25.039 46.247L25.0005 46.2688V46.2703C24.6966 46.4455 24.4442 46.6977 24.2686 47.0014C24.0931 47.3052 24.0007 47.6498 24.0006 48.0006L24.0011 48.0132L24 48.0023V74.9994H43.9999C45.0599 74.9962 46.0755 74.5738 46.825 73.8243C47.5745 73.0748 47.9969 72.0592 48.0001 70.9992V70.9992Z" fill="black"/>
<path d="M4.00098 23.9993H44.0007C44.526 23.9993 45.0461 24.1027 45.5314 24.3037C46.0167 24.5047 46.4577 24.7994 46.8291 25.1708C47.2006 25.5422 47.4952 25.9832 47.6962 26.4685C47.8972 26.9538 48.0007 27.4739 48.0007 27.9992V67.9993C48.0007 68.5246 47.8972 69.0448 47.6962 69.5301C47.4952 70.0154 47.2006 70.4564 46.8291 70.8278C46.4577 71.1993 46.0167 71.4939 45.5314 71.6949C45.0461 71.8959 44.5259 71.9994 44.0006 71.9994H4.00095C2.94009 71.9994 1.92269 71.5779 1.17255 70.8278C0.422406 70.0777 0.000976563 69.0603 0.000976563 67.9994V27.9993C0.000972623 27.474 0.104436 26.9539 0.305453 26.4686C0.50647 25.9832 0.801105 25.5423 1.17254 25.1709C1.54398 24.7994 1.98494 24.5048 2.47024 24.3037C2.95555 24.1027 3.47569 23.9993 4.00098 23.9993V23.9993Z" fill="#0078D4"/>
<path d="M11.434 40.303C12.5108 38.0085 14.249 36.0882 16.4253 34.789C18.8362 33.4088 21.5812 32.7208 24.358 32.8007C26.9308 32.7446 29.4694 33.397 31.6964 34.6865C33.7921 35.9345 35.4799 37.7647 36.5544 39.9545C37.7241 42.3671 38.3071 45.0221 38.2558 47.7028C38.3129 50.505 37.7126 53.2816 36.5032 55.8099C35.4048 58.0773 33.666 59.9729 31.5016 61.2624C29.1882 62.5924 26.5543 63.2624 23.8866 63.1995C21.2586 63.262 18.6637 62.6027 16.3843 61.2932C14.2715 60.0428 12.5636 58.2103 11.4648 56.0149C10.287 53.6372 9.69653 51.0118 9.74292 48.3589C9.69129 45.5803 10.2694 42.8262 11.434 40.303V40.303ZM16.7533 53.2476C17.3278 54.698 18.3015 55.956 19.5615 56.8758C20.8449 57.7739 22.3822 58.2372 23.9481 58.1979C25.6158 58.2632 27.2596 57.7848 28.6319 56.8348C29.8771 55.9148 30.825 54.6498 31.3582 53.1964C31.957 51.5765 32.2523 49.8602 32.2293 48.1333C32.2481 46.391 31.9708 44.6582 31.4094 43.0087C30.9138 41.5237 29.999 40.2138 28.7754 39.2371C27.4387 38.2395 25.7991 37.7327 24.1326 37.8022C22.5331 37.7613 20.9617 38.2277 19.6435 39.1346C18.3591 40.0572 17.3638 41.3263 16.7738 42.7935C15.469 46.1548 15.4617 49.8813 16.7533 53.2476H16.7533Z" fill="white"/>
</svg>
